<svg width="282" height="40" viewBox="0 0 282 40" fill="none" xmlns="http://www.w3.org/2000/svg">
<path d="M100.018 13.9063L87.621 12.1045L82.079 0.869159C81.9277 0.561542 81.6786 0.312518 81.371 0.161151C80.5995 -0.219709 79.662 0.0976744 79.2763 0.869159L73.7343 12.1045L61.3368 13.9063C60.995 13.9551 60.6825 14.1162 60.4433 14.3604C60.154 14.6577 59.9946 15.0576 60.0001 15.4724C60.0056 15.8871 60.1756 16.2828 60.4726 16.5723L69.4423 25.3174L67.3232 37.666C67.2735 37.9533 67.3053 38.2487 67.4149 38.5188C67.5246 38.7889 67.7077 39.0229 67.9436 39.1942C68.1795 39.3656 68.4586 39.4674 68.7494 39.4881C69.0402 39.5088 69.331 39.4477 69.5888 39.3115L80.6777 33.4815L91.7665 39.3115C92.0693 39.4727 92.4208 39.5264 92.7577 39.4678C93.6073 39.3213 94.1786 38.5156 94.0322 37.666L91.913 25.3174L100.883 16.5723C101.127 16.333 101.288 16.0205 101.337 15.6787C101.469 14.8242 100.873 14.0332 100.018 13.9063V13.9063Z" fill="#FEE715"/>
<path d="M220.018 13.9063L207.621 12.1045L202.079 0.869159C201.928 0.561542 201.679 0.312518 201.371 0.161151C200.6 -0.219709 199.662 0.0976744 199.276 0.869159L193.734 12.1045L181.337 13.9063C180.995 13.9551 180.683 14.1162 180.443 14.3604C180.154 14.6577 179.995 15.0576 180 15.4724C180.006 15.8871 180.176 16.2828 180.473 16.5723L189.442 25.3174L187.323 37.666C187.273 37.9533 187.305 38.2487 187.415 38.5188C187.525 38.7889 187.708 39.0229 187.944 39.1942C188.179 39.3656 188.459 39.4674 188.749 39.4881C189.04 39.5088 189.331 39.4477 189.589 39.3115L200.678 33.4815L211.767 39.3115C212.069 39.4727 212.421 39.5264 212.758 39.4678C213.607 39.3213 214.179 38.5156 214.032 37.666L211.913 25.3174L220.883 16.5723C221.127 16.333 221.288 16.0205 221.337 15.6787C221.469 14.8242 220.873 14.0332 220.018 13.9063V13.9063Z" fill="#FEE715"/>
<path d="M280.018 13.9063L267.621 12.1045L262.079 0.869159C261.928 0.561542 261.679 0.312518 261.371 0.161151C260.6 -0.219709 259.662 0.0976744 259.276 0.869159L253.734 12.1045L241.337 13.9063C240.995 13.9551 240.683 14.1162 240.443 14.3604C240.154 14.6577 239.995 15.0576 240 15.4724C240.006 15.8871 240.176 16.2828 240.473 16.5723L249.442 25.3174L247.323 37.666C247.273 37.9533 247.305 38.2487 247.415 38.5188C247.525 38.7889 247.708 39.0229 247.944 39.1942C248.179 39.3656 248.459 39.4674 248.749 39.4881C249.04 39.5088 249.331 39.4477 249.589 39.3115L260.678 33.4815L271.767 39.3115C272.069 39.4727 272.421 39.5264 272.758 39.4678C273.607 39.3213 274.179 38.5156 274.032 37.666L271.913 25.3174L280.883 16.5723C281.127 16.333 281.288 16.0205 281.337 15.6787C281.469 14.8242 280.873 14.0332 280.018 13.9063V13.9063Z" fill="#FEE715"/>
<path d="M40.0185 13.9063L27.621 12.1045L22.079 0.869159C21.9277 0.561542 21.6786 0.312518 21.371 0.161151C20.5995 -0.219709 19.662 0.0976744 19.2763 0.869159L13.7343 12.1045L1.33684 13.9063C0.995041 13.9551 0.682541 14.1162 0.443283 14.3604C0.154034 14.6577 -0.005356 15.0576 0.000137431 15.4724C0.00563086 15.8871 0.175558 16.2828 0.47258 16.5723L9.44231 25.3174L7.32317 37.666C7.27347 37.9533 7.30526 38.2487 7.41492 38.5188C7.52459 38.7889 7.70774 39.0229 7.94362 39.1942C8.17949 39.3656 8.45865 39.4674 8.74943 39.4881C9.04022 39.5088 9.331 39.4477 9.58879 39.3115L20.6777 33.4815L31.7665 39.3115C32.0693 39.4727 32.4208 39.5264 32.7577 39.4678C33.6073 39.3213 34.1786 38.5156 34.0322 37.666L31.913 25.3174L40.8827 16.5723C41.1269 16.333 41.288 16.0205 41.3368 15.6787C41.4687 14.8242 40.873 14.0332 40.0185 13.9063V13.9063Z" fill="#FEE715"/>
<path d="M160.018 13.9063L147.621 12.1045L142.079 0.869159C141.928 0.561542 141.679 0.312518 141.371 0.161151C140.6 -0.219709 139.662 0.0976744 139.276 0.869159L133.734 12.1045L121.337 13.9063C120.995 13.9551 120.683 14.1162 120.443 14.3604C120.154 14.6577 119.995 15.0576 120 15.4724C120.006 15.8871 120.176 16.2828 120.473 16.5723L129.442 25.3174L127.323 37.666C127.273 37.9533 127.305 38.2487 127.415 38.5188C127.525 38.7889 127.708 39.0229 127.944 39.1942C128.179 39.3656 128.459 39.4674 128.749 39.4881C129.04 39.5088 129.331 39.4477 129.589 39.3115L140.678 33.4815L151.767 39.3115C152.069 39.4727 152.421 39.5264 152.758 39.4678C153.607 39.3213 154.179 38.5156 154.032 37.666L151.913 25.3174L160.883 16.5723C161.127 16.333 161.288 16.0205 161.337 15.6787C161.469 14.8242 160.873 14.0332 160.018 13.9063V13.9063Z" fill="#FEE715"/>
</svg>
